<svg width="136" height="82" viewBox="0 0 136 82" fill="none" xmlns="http://www.w3.org/2000/svg">
<g clip-path="url(#clip0_121_325)">
<g filter="url(#filter0_dii_121_325)">
<path fill-rule="evenodd" clip-rule="evenodd" d="M11.7771 40.8389C10.8145 39.8755 9.16852 40.5577 9.16852 41.9202V71.3916C9.16852 72.2361 9.85266 72.9207 10.6966 72.9207H21.0112C21.8551 72.9207 22.5393 72.2361 22.5393 71.3916V52.2418C22.5393 51.8362 22.3783 51.4473 22.0918 51.1605L11.7771 40.8389ZM65.8989 10.8951C65.8989 10.0506 65.2147 9.36597 64.3708 9.36597H63.6667C63.2614 9.36597 62.8727 9.52706 62.5862 9.81383L38.8053 33.611C38.2085 34.2081 37.2409 34.2081 36.6441 33.611L25.2135 22.1725L12.8633 9.81383C12.5767 9.52706 12.188 9.36597 11.7828 9.36597H10.6966C9.85266 9.36597 9.16852 10.0506 9.16852 10.8951V24.4062C9.16852 24.8118 9.32952 25.2008 9.61608 25.4875L22.5393 38.4196L28.7472 44.6317L36.673 52.563C37.2584 53.1488 38.2034 53.1614 38.8045 52.5918L39.5393 51.8951L41.9269 49.4103L42.691 48.6457L45.4607 45.9697L49.9122 41.4549C50.8718 40.4816 52.5281 41.1615 52.5281 42.5289V71.3916C52.5281 72.2361 53.2123 72.9207 54.0562 72.9207H64.3708C65.2147 72.9207 65.8989 72.2361 65.8989 71.3916V10.8951ZM70.4831 11.373C70.4831 10.5284 71.1673 9.84382 72.0112 9.84382H125.303C126.147 9.84382 126.831 10.5284 126.831 11.373V21.6946C126.831 22.5391 126.147 23.2238 125.303 23.2238H102.191C101.347 23.2238 100.663 23.9084 100.663 24.7529V31.0606C100.663 31.9051 101.347 32.5897 102.191 32.5897H115.753C116.597 32.5897 117.281 31.9051 117.281 31.0606V29.3403C117.281 28.4959 117.965 27.8112 118.809 27.8112H125.303C126.147 27.8112 126.831 28.4959 126.831 29.3403V48.2634C126.831 49.1079 126.147 49.7925 125.303 49.7925H118.809C117.965 49.7925 117.281 49.1079 117.281 48.2634V47.4988C117.281 46.6544 116.597 45.9697 115.753 45.9697H102.191C101.347 45.9697 100.663 46.6544 100.663 47.4988V58.0117C100.663 58.8561 101.347 59.5408 102.191 59.5408H125.303C126.147 59.5408 126.831 60.2255 126.831 61.0699V71.3916C126.831 72.2361 126.147 72.9207 125.303 72.9207H72.0112C71.1673 72.9207 70.4831 72.2361 70.4831 71.3916V62.0256V59.5408V34.0342C70.4831 33.1855 71.174 32.4991 72.0221 32.5053L83.8539 32.5897H89.5843C90.4281 32.5897 91.1123 31.9051 91.1123 31.0606V24.7529C91.1123 23.9084 90.4281 23.2238 89.5843 23.2238H72.0112C71.1673 23.2238 70.4831 22.5391 70.4831 21.6946V12.3287V11.373ZM89.5843 59.5408C90.4281 59.5408 91.1123 58.8561 91.1123 58.0117V47.4988C91.1123 46.6544 90.4281 45.9697 89.5843 45.9697H85.382C84.5381 45.9697 83.8539 46.6544 83.8539 47.4988V58.0117C83.8539 58.8561 84.5381 59.5408 85.382 59.5408H89.5843Z" fill="url(#paint0_linear_121_325)"/>
</g>
</g>
<defs>
<filter id="filter0_dii_121_325" x="-38.8315" y="-22.634" width="213.663" height="159.555" filterUnits="userSpaceOnUse" color-interpolation-filters="sRGB">
<feFlood flood-opacity="0" result="BackgroundImageFix"/>
<feColorMatrix in="SourceAlpha" type="matrix" values="0 0 0 0 0 0 0 0 0 0 0 0 0 0 0 0 0 0 127 0" result="hardAlpha"/>
<feOffset dy="16"/>
<feGaussianBlur stdDeviation="24"/>
<feComposite in2="hardAlpha" operator="out"/>
<feColorMatrix type="matrix" values="0 0 0 0 0 0 0 0 0 0 0 0 0 0 0 0 0 0 0.12 0"/>
<feBlend mode="normal" in2="BackgroundImageFix" result="effect1_dropShadow_121_325"/>
<feBlend mode="normal" in="SourceGraphic" in2="effect1_dropShadow_121_325" result="shape"/>
<feColorMatrix in="SourceAlpha" type="matrix" values="0 0 0 0 0 0 0 0 0 0 0 0 0 0 0 0 0 0 127 0" result="hardAlpha"/>
<feOffset dy="16"/>
<feGaussianBlur stdDeviation="16"/>
<feComposite in2="hardAlpha" operator="arithmetic" k2="-1" k3="1"/>
<feColorMatrix type="matrix" values="0 0 0 0 0.437531 0 0 0 0 0.741948 0 0 0 0 0.946477 0 0 0 0.6 0"/>
<feBlend mode="normal" in2="shape" result="effect2_innerShadow_121_325"/>
<feColorMatrix in="SourceAlpha" type="matrix" values="0 0 0 0 0 0 0 0 0 0 0 0 0 0 0 0 0 0 127 0" result="hardAlpha"/>
<feOffset dy="-16"/>
<feGaussianBlur stdDeviation="16"/>
<feComposite in2="hardAlpha" operator="arithmetic" k2="-1" k3="1"/>
<feColorMatrix type="matrix" values="0 0 0 0 0.276186 0 0 0 0 0.527693 0 0 0 0 0.63375 0 0 0 0.6 0"/>
<feBlend mode="normal" in2="effect2_innerShadow_121_325" result="effect3_innerShadow_121_325"/>
</filter>
<linearGradient id="paint0_linear_121_325" x1="-3.72474" y1="12.9977" x2="140.121" y2="52.5137" gradientUnits="userSpaceOnUse">
<stop stop-color="#4E2F8E"/>
<stop offset="1" stop-color="#47FBE5"/>
</linearGradient>
<clipPath id="clip0_121_325">
<rect width="136" height="82" fill="white"/>
</clipPath>
</defs>
</svg>
